<svg width="89" height="112" viewBox="0 0 89 112" fill="none" xmlns="http://www.w3.org/2000/svg">
<path d="M11.3914 0C14.0571 0.437233 14.8441 1.33802 16.4549 3.42884C20.7759 9.935 20.2088 17.5992 18.7253 24.9963C15.2863 40.7025 15.2863 40.7025 11.7581 46.3296C11.0067 48.2408 11.2926 50.155 11.4407 52.1634C11.4697 52.6212 11.4988 53.0789 11.5287 53.5505C11.6242 55.0168 11.7295 56.4821 11.8369 57.9475C11.8875 58.6583 11.8875 58.6583 11.9391 59.3835C12.1753 62.6893 12.4321 65.9932 12.6937 69.297C12.7706 70.2802 12.8473 71.2635 12.9239 72.2468C13.1086 74.6125 13.2948 76.978 13.4819 79.3435C14.3579 79.3602 15.234 79.3721 16.1101 79.382C16.5979 79.3892 17.0858 79.3964 17.5884 79.4037C20.2887 79.2855 21.7759 78.1655 23.6603 76.3261C26.7587 72.3433 28.3641 67.5776 28.3821 62.6053C28.3858 62.1867 28.3894 61.7681 28.3932 61.3368C28.4009 60.4271 28.4074 59.5174 28.4129 58.6077C28.4219 57.1632 28.4347 55.7188 28.4485 54.2744C28.4872 50.1671 28.5201 46.0598 28.5484 41.9525C28.5659 39.4391 28.5886 36.9259 28.6143 34.4127C28.623 33.4591 28.6298 32.5055 28.6345 31.552C28.6598 26.5295 28.7461 21.7156 29.9319 16.8013C30.6557 16.6203 31.3795 16.4393 32.1252 16.2527C35.3917 21.8976 35.0869 28.309 35.0725 34.6313C35.0726 35.3013 35.0726 35.3013 35.0727 35.9848C35.0528 45.4468 34.2402 54.6905 31.4398 63.7765C29.7838 69.3362 30.2949 75.2474 30.4802 80.9893C30.593 80.6444 30.7058 80.2995 30.822 79.9442C36.88 61.5726 36.88 61.5726 41.9952 57.9475C44.12 58.0161 44.12 58.0161 45.8336 58.4961C47.3358 61.988 47.846 65.1434 48.1297 68.9198C48.1746 69.4495 48.2195 69.9792 48.2657 70.5249C48.3745 71.8182 48.4776 73.1117 48.5752 74.4059C48.8537 73.7567 49.1322 73.1075 49.4192 72.4386C55.2549 58.9735 55.2549 58.9735 58.9936 56.3016C60.6782 55.8963 61.5923 56.0177 63.3802 56.3016C67.6544 60.0001 67.7351 66.4185 68.3152 71.6629C68.5146 71.1197 68.7139 70.5766 68.9193 70.017C70.666 65.3794 72.2884 61.1313 76.2661 57.9475C77.9964 57.255 79.0756 57.1342 80.9269 57.3989C84.5225 59.1609 86.1788 62.0707 87.644 65.6624C88.4515 68.8269 88.6735 71.9132 88.6764 75.171C88.6769 75.5404 88.6775 75.9099 88.678 76.2905C88.6784 77.0637 88.6774 77.8368 88.6751 78.6099C88.6721 79.7956 88.6751 80.9812 88.6785 82.1669C88.6782 82.9209 88.6775 83.6749 88.6764 84.4289C88.6758 85.1112 88.6752 85.7935 88.6745 86.4965C88.6036 88.1213 88.6036 88.1213 88.0552 89.2185C87.5124 89.2185 86.9695 89.2185 86.4102 89.2185C86.4189 88.7046 86.4275 88.1906 86.4363 87.6611C86.4647 85.7224 86.4851 83.784 86.5006 81.8452C86.5088 81.012 86.5199 80.1789 86.5343 79.3459C86.6444 72.801 86.5381 66.222 82.5719 60.6906C81.2223 59.6103 80.5341 59.5967 78.8021 59.559C76.3029 60.4092 75.1127 61.7774 73.7986 63.9822C70.4747 71.3698 68.8792 79.0248 67.7669 87.0241C67.2241 87.2051 66.6812 87.3862 66.1219 87.5727C66.1056 86.8061 66.1056 86.8061 66.089 86.024C66.0457 84.0923 65.9981 82.1609 65.9479 80.2295C65.9271 79.4002 65.908 78.5708 65.8906 77.7414C66.1035 67.8941 66.1035 67.8941 62.8319 59.0447C61.5566 58.2683 61.5566 58.2683 60.0902 58.4961C57.904 60.374 56.5362 62.4111 55.2923 64.9766C55.1114 65.3426 54.9304 65.7086 54.744 66.0856C52.099 71.6105 50.0921 77.4236 48.0269 83.1838C47.3031 83.0027 46.5793 82.8217 45.8336 82.6352C45.8227 82.1097 45.8118 81.5843 45.8006 81.0429C45.7586 79.0755 45.71 77.1084 45.6595 75.1413C45.6387 74.2932 45.6195 73.4451 45.6022 72.5969C45.5769 71.3711 45.5452 70.1455 45.5123 68.9198C45.506 68.5464 45.4996 68.1731 45.4931 67.7884C45.4118 65.0858 44.9086 62.7302 44.1886 60.1419C42.2192 60.561 41.5755 60.9395 40.4531 62.645C32.8761 74.8087 30.4176 89.4759 28.8352 103.483C28.2924 103.483 27.7495 103.483 27.1902 103.483C27.1751 102.328 27.1646 101.174 27.156 100.019C27.1496 99.3766 27.1432 98.7337 27.1367 98.0714C27.1499 96.3733 27.2887 94.7133 27.4644 93.0246C27.8303 89.2527 27.7983 85.4956 27.7728 81.7094C27.7704 81.0039 27.7679 80.2985 27.7653 79.5717C27.759 77.8497 27.75 76.1279 27.7386 74.4059C27.4086 74.8579 27.4086 74.8579 27.0719 75.319C26.7802 75.7143 26.4884 76.1096 26.1878 76.5168C25.9 76.9086 25.6121 77.3005 25.3155 77.7042C23.9915 79.3699 22.508 80.5885 20.6102 81.5379C19.3999 81.5768 18.1884 81.5841 16.9775 81.5722C16.3258 81.5673 15.6741 81.5623 15.0027 81.5572C14.5008 81.5509 13.999 81.5445 13.4819 81.5379C13.4877 82.0823 13.4934 82.6266 13.4993 83.1874C13.5194 85.2416 13.5318 87.2957 13.5422 89.3499C13.5476 90.2325 13.555 91.1151 13.5646 91.9976C13.715 106.2 13.715 106.2 10.7402 110.615C10.1919 111.163 10.1919 111.163 8.75253 111.472C6.27608 111.059 5.48578 110.021 3.94605 108.109C2.53446 105.974 1.66969 103.709 0.870241 101.288C0.689291 100.745 0.508341 100.202 0.321908 99.6422C-0.148248 94.4815 -0.546167 88.6953 2.51524 84.281C2.82271 83.8047 2.82271 83.8047 3.1364 83.3188C4.79763 81.0348 6.50088 80.2087 9.09524 79.3435C9.63809 79.3435 10.1809 79.3435 10.7402 79.3435C10.0164 70.4724 9.29264 61.6013 8.54691 52.4613C7.64216 53.3665 6.73741 54.2718 5.80524 55.2044C4.26305 55.1015 4.26305 55.1015 3.06357 54.6558C3.24452 53.5695 3.42547 52.4833 3.61191 51.3641C3.95119 51.3301 4.29047 51.2962 4.64003 51.2612C5.95229 50.913 5.95229 50.913 6.45639 49.4439C6.60341 48.9913 6.75043 48.5387 6.90191 48.0724C7.17333 47.8008 7.17333 47.8008 7.45024 47.5238C7.50618 46.4621 7.5213 45.3981 7.51878 44.335C7.5202 43.7544 7.52161 43.1737 7.52307 42.5755C7.4646 40.8223 7.34075 39.1127 7.17848 37.368C6.89519 34.0204 6.80474 30.697 6.79053 27.3386C6.7874 26.7508 6.78428 26.1629 6.78106 25.5573C6.77592 24.326 6.77231 23.0946 6.77018 21.8633C6.76482 19.989 6.74775 18.1151 6.73055 16.2409C6.72698 15.0369 6.7241 13.8329 6.72199 12.6289C6.71522 12.075 6.70845 11.5211 6.70147 10.9504C6.73278 0.913923 6.73278 0.913922 11.3914 0Z" fill="white"/>
<path d="M12.2048 3C14.0718 3.80999 14.761 5.24249 15.7294 7.28169C19.2319 17.8194 14.6911 30.9932 11.7642 41C11.6189 41 11.4735 41 11.3237 41C8.09183 11.6703 8.09183 11.6703 12.2048 3Z" fill="#16141C"/>
<path d="M10.7401 81.538C11.3585 85.5177 11.3891 89.4479 11.3912 93.4703C11.3979 94.128 11.4046 94.7857 11.4116 95.4634C11.4277 105.398 11.4277 105.398 9.6434 108.969C8.44393 108.969 8.44393 108.969 6.90174 108.42C2.7122 103.74 2.0742 97.4657 2.28803 91.458C2.53459 88.0921 3.65827 85.2908 6.09423 82.9159C7.75066 81.6888 8.64707 81.538 10.7401 81.538Z" fill="#16141C"/>
<path d="M31.0285 18.9958C34.3111 22.2802 33.4289 29.0364 33.4298 33.4186C33.429 33.8301 33.4283 34.2417 33.4274 34.6657C33.4282 35.0845 33.429 35.5033 33.4298 35.9348C33.4282 43.6188 32.6175 50.9645 31.0285 58.4961C30.8475 58.4961 30.6666 58.4961 30.4801 58.4961C30.466 54.8988 30.4565 51.3014 30.45 47.704C30.4473 46.4864 30.4436 45.2688 30.4388 44.0512C30.4065 35.6833 30.5823 27.3524 31.0285 18.9958Z" fill="#16141C"/>
</svg>
